<svg width="68" height="68" viewBox="0 0 68 68" fill="none" xmlns="http://www.w3.org/2000/svg">
<g clip-path="url(#clip0_21_195)">
<path d="M12.0542 60.17C10.6134 60.17 9.41129 59.6883 8.44798 58.725C7.48466 57.7617 7.00196 56.5586 6.99988 55.1157V8.56384C6.99988 8.11972 7.15001 7.74857 7.45026 7.4504C7.75051 7.15223 8.1227 7.00211 8.56683 7.00002C9.01095 6.99794 9.3821 7.14806 9.68027 7.4504C9.97844 7.75274 10.1275 8.12389 10.1275 8.56384V55.1188C10.1275 55.5984 10.3277 56.0394 10.728 56.4418C11.1284 56.8443 11.5694 57.0444 12.051 57.0424H58.606C59.0502 57.0424 59.4213 57.1925 59.7195 57.4927C60.0176 57.793 60.1678 58.1652 60.1699 58.6093C60.1719 59.0534 60.0218 59.4246 59.7195 59.7227C59.4171 60.0209 59.046 60.17 58.606 60.17H12.0542ZM21.4371 49.2232C20.7886 49.2232 20.2455 49.0043 19.8076 48.5664C19.3697 48.1286 19.1508 47.5864 19.1508 46.9401V28.6496C19.1508 28.0032 19.3697 27.4611 19.8076 27.0232C20.2455 26.5853 20.7876 26.3664 21.434 26.3664H22.8789C23.5941 26.3664 24.1946 26.6093 24.6805 27.0951C25.1642 27.5831 25.4061 28.1877 25.4061 28.9092V46.7024C25.4061 47.4238 25.1632 48.0233 24.6773 48.5007C24.1936 48.9803 23.5941 49.2201 22.8789 49.2201L21.4371 49.2232ZM35.5115 49.2232C34.863 49.2232 34.3199 49.0043 33.882 48.5664C33.4441 48.1286 33.2252 47.5864 33.2252 46.9401V13.2553C33.2252 12.5401 33.4671 11.9407 33.9508 11.4569C34.4345 10.9732 35.034 10.7303 35.7492 10.7282H37.1942C37.8405 10.7282 38.3827 10.9471 38.8205 11.385C39.2584 11.8229 39.4773 12.366 39.4773 13.0145V46.6992C39.4773 47.4144 39.2365 48.0139 38.7549 48.4976C38.269 48.9814 37.6685 49.2232 36.9533 49.2232H35.5115ZM49.5859 49.2232C48.9374 49.2232 48.3943 49.0043 47.9564 48.5664C47.5185 48.1286 47.2996 47.5864 47.2996 46.9401V41.4041C47.2996 40.6889 47.5415 40.0895 48.0252 39.6057C48.5089 39.122 49.1084 38.8791 49.8236 38.877H51.2686C51.915 38.877 52.4571 39.0959 52.8949 39.5338C53.3328 39.9717 53.5518 40.5148 53.5518 41.1633V46.6992C53.5518 47.4144 53.3109 48.0139 52.8293 48.4976C52.3476 48.9814 51.7471 49.2232 51.0277 49.2232H49.5859Z" fill="white"/>
</g>
<defs>
<clipPath id="clip0_21_195">
<rect width="68" height="68" fill="white"/>
</clipPath>
</defs>
</svg>
