<svg width="80" height="80" viewBox="0 0 80 80" fill="none" xmlns="http://www.w3.org/2000/svg">
<g clip-path="url(#clip0_24_21)">
<path d="M40.6197 15.8334C40.6197 10.7789 36.5075 6.66675 31.453 6.66675C29.7 6.66675 28.0607 7.16125 26.6667 8.01808C25.2727 7.16125 23.6334 6.66675 21.8804 6.66675C16.8259 6.66675 12.7137 10.7789 12.7137 15.8334C12.7137 20.8879 16.8259 25.0001 21.8804 25.0001C23.6334 25.0001 25.2727 24.5056 26.6667 23.6487C28.0607 24.5057 29.7 25.0001 31.453 25.0001C36.5075 25.0001 40.6197 20.8879 40.6197 15.8334ZM24.0584 21.2451C23.3852 21.5171 22.65 21.6667 21.8805 21.6667C18.664 21.6667 16.0472 19.0499 16.0472 15.8334C16.0472 12.6169 18.664 10.0001 21.8805 10.0001C22.65 10.0001 23.3852 10.1497 24.0584 10.4217C22.9445 11.9394 22.2864 13.8107 22.2864 15.8334C22.2864 17.8561 22.9445 19.7272 24.0584 21.2451ZM26.6667 19.1646C26.007 18.2194 25.6197 17.0707 25.6197 15.8334C25.6197 14.5961 26.007 13.4474 26.6667 12.5022C27.3264 13.4474 27.7137 14.5961 27.7137 15.8334C27.7137 17.0707 27.3264 18.2194 26.6667 19.1646ZM29.275 21.2451C30.3888 19.7274 31.047 17.8561 31.047 15.8334C31.047 13.8107 30.3888 11.9396 29.275 10.4217C29.9482 10.1497 30.6833 10.0001 31.4528 10.0001C34.6693 10.0001 37.2862 12.6169 37.2862 15.8334C37.2862 19.0499 34.6693 21.6667 31.4528 21.6667C30.6833 21.6667 29.9482 21.5171 29.275 21.2451Z" fill="#00AA55"/>
<path d="M26.6667 31.6667H11.6667C10.7463 31.6667 10 32.4131 10 33.3334C10 34.2537 10.7463 35.0001 11.6667 35.0001H26.6667C27.587 35.0001 28.3333 34.2537 28.3333 33.3334C28.3333 32.4131 27.587 31.6667 26.6667 31.6667Z" fill="#00AA55"/>
<path d="M51.6667 68.3333C50.7463 68.3333 50 69.0796 50 69.9999V71.6666C50 72.5869 50.7463 73.3333 51.6667 73.3333C52.587 73.3333 53.3333 72.5869 53.3333 71.6666V69.9999C53.3333 69.0796 52.587 68.3333 51.6667 68.3333Z" fill="#00AA55"/>
<path d="M11.6667 61.6667C10.7463 61.6667 10 62.4131 10 63.3334C10 64.2537 10.7463 65.0001 11.6667 65.0001H16.6667C17.587 65.0001 18.3333 64.2537 18.3333 63.3334C18.3333 62.4131 17.587 61.6667 16.6667 61.6667H11.6667Z" fill="#00AA55"/>
<path d="M28.3333 53.3334C28.3333 52.4131 27.587 51.6667 26.6667 51.6667H11.6667C10.7463 51.6667 10 52.4131 10 53.3334C10 54.2537 10.7463 55.0001 11.6667 55.0001H26.6667C27.587 55.0001 28.3333 54.2537 28.3333 53.3334Z" fill="#00AA55"/>
<path d="M11.6667 45.0001H16.6667C17.587 45.0001 18.3333 44.2537 18.3333 43.3334C18.3333 42.4131 17.587 41.6667 16.6667 41.6667H11.6667C10.7463 41.6667 10 42.4131 10 43.3334C10 44.2537 10.7463 45.0001 11.6667 45.0001Z" fill="#00AA55"/>
<path d="M60.8334 60C59.913 60 59.1667 60.7463 59.1667 61.6667V63.3333C59.1667 64.2537 59.913 65 60.8334 65C61.7537 65 62.5 64.2537 62.5 63.3333V61.6667C62.5 60.7463 61.7537 60 60.8334 60Z" fill="#00AA55"/>
<path d="M70 60C69.0796 60 68.3333 60.7463 68.3333 61.6667V63.3333C68.3333 64.2537 69.0796 65 70 65C70.9203 65 71.6666 64.2537 71.6666 63.3333V61.6667C71.6666 60.7463 70.9203 60 70 60Z" fill="#00AA55"/>
<path d="M68.3333 36.6667H53.3333C50.5763 36.6667 48.3333 38.9097 48.3333 41.6667C48.3333 44.4237 50.5763 46.6667 53.3333 46.6667H68.3333C71.0903 46.6667 73.3333 44.4237 73.3333 41.6667C73.3333 38.9097 71.0903 36.6667 68.3333 36.6667ZM68.3333 43.3334H53.3333C52.4143 43.3334 51.6666 42.5857 51.6666 41.6667C51.6666 40.7477 52.4143 40.0001 53.3333 40.0001H68.3333C69.2523 40.0001 70 40.7477 70 41.6667C70 42.5857 69.2523 43.3334 68.3333 43.3334Z" fill="#00AA55"/>
<path d="M70 51.6667C69.0796 51.6667 68.3333 52.4131 68.3333 53.3334V55.0001C68.3333 55.9204 69.0796 56.6667 70 56.6667C70.9203 56.6667 71.6666 55.9204 71.6666 55.0001V53.3334C71.6666 52.4131 70.9203 51.6667 70 51.6667Z" fill="#00AA55"/>
<path d="M51.6667 60C50.7463 60 50 60.7463 50 61.6667V63.3333C50 64.2537 50.7463 65 51.6667 65C52.587 65 53.3333 64.2537 53.3333 63.3333V61.6667C53.3333 60.7463 52.587 60 51.6667 60Z" fill="#00AA55"/>
<path d="M75 30H53.3333V5C53.3333 2.243 51.0903 0 48.3333 0H5C2.243 0 0 2.243 0 5V70C0 72.757 2.243 75 5 75H36.6667C37.587 75 38.3333 74.2537 38.3333 73.3333C38.3333 72.413 37.587 71.6667 36.6667 71.6667H5C4.081 71.6667 3.33333 70.919 3.33333 70V5C3.33333 4.081 4.081 3.33333 5 3.33333H48.3333C49.2523 3.33333 50 4.081 50 5V30H46.6667C43.9097 30 41.6667 32.243 41.6667 35V75C41.6667 77.757 43.9097 80 46.6667 80H75C77.757 80 80 77.757 80 75V35C80 32.243 77.757 30 75 30ZM76.6667 75C76.6667 75.919 75.919 76.6667 75 76.6667H46.6667C45.7477 76.6667 45 75.919 45 75V35C45 34.081 45.7477 33.3333 46.6667 33.3333H75C75.919 33.3333 76.6667 34.081 76.6667 35V75Z" fill="#00AA55"/>
<path d="M51.6667 51.6667C50.7463 51.6667 50 52.4131 50 53.3334V55.0001C50 55.9204 50.7463 56.6667 51.6667 56.6667C52.587 56.6667 53.3333 55.9204 53.3333 55.0001V53.3334C53.3333 52.4131 52.587 51.6667 51.6667 51.6667Z" fill="#00AA55"/>
<path d="M60.8334 68.3333C59.913 68.3333 59.1667 69.0796 59.1667 69.9999V71.6666C59.1667 72.5869 59.913 73.3333 60.8334 73.3333C61.7537 73.3333 62.5 72.5869 62.5 71.6666V69.9999C62.5 69.0796 61.7537 68.3333 60.8334 68.3333Z" fill="#00AA55"/>
<path d="M60.8334 51.6667C59.913 51.6667 59.1667 52.4131 59.1667 53.3334V55.0001C59.1667 55.9204 59.913 56.6667 60.8334 56.6667C61.7537 56.6667 62.5 55.9204 62.5 55.0001V53.3334C62.5 52.4131 61.7537 51.6667 60.8334 51.6667Z" fill="#00AA55"/>
<path d="M70 68.3333C69.0796 68.3333 68.3333 69.0796 68.3333 69.9999V71.6666C68.3333 72.5869 69.0796 73.3333 70 73.3333C70.9203 73.3333 71.6666 72.5869 71.6666 71.6666V69.9999C71.6666 69.0796 70.9203 68.3333 70 68.3333Z" fill="#00AA55"/>
</g>
<defs>
<clipPath id="clip0_24_21">
<rect width="80" height="80" fill="white"/>
</clipPath>
</defs>
</svg>
