<svg width="68" height="68" viewBox="0 0 68 68" fill="none" xmlns="http://www.w3.org/2000/svg">
<path d="M18.0292 12.8085V9.10874C18.8137 9.36586 19.3068 9.88343 19.3068 10.3634C19.3068 10.9514 19.7835 11.4282 20.3716 11.4282C20.9597 11.4282 21.4363 10.9515 21.4363 10.3634C21.4363 8.66554 20.0062 7.28243 18.0292 6.91255V6.74335C18.0292 6.15539 17.5525 5.67859 16.9644 5.67859C16.3763 5.67859 15.8996 6.15525 15.8996 6.74335V6.91255C13.9227 7.28257 12.4925 8.66567 12.4925 10.3634C12.4925 12.7357 14.3872 13.7327 15.8996 14.3066V18.0065C15.1151 17.7494 14.622 17.2318 14.622 16.7518C14.622 16.1639 14.1453 15.6871 13.5572 15.6871C12.9691 15.6871 12.4925 16.1637 12.4925 16.7518C12.4925 18.4497 13.9226 19.8328 15.8996 20.2027V20.3719C15.8996 20.9599 16.3763 21.4367 16.9644 21.4367C17.5525 21.4367 18.0292 20.96 18.0292 20.3719V20.2027C20.0061 19.8327 21.4363 18.4496 21.4363 16.7518C21.4363 14.3794 19.5416 13.3824 18.0292 12.8085ZM15.8998 11.9836C14.8383 11.4634 14.6221 11.009 14.6221 10.3634C14.6221 9.88343 15.1153 9.36586 15.8998 9.10874V11.9836ZM18.0292 18.0064V15.1315C19.0906 15.6517 19.3068 16.1061 19.3068 16.7517C19.3068 17.2317 18.8137 17.7493 18.0292 18.0064Z" fill="white"/>
<path d="M34 7.94995H24.9144C24.3265 7.94995 23.8497 8.42661 23.8497 9.01471C23.8497 9.60267 24.3263 10.0795 24.9144 10.0795H34C34.588 10.0795 35.0648 9.6028 35.0648 9.01471C35.0648 8.42675 34.588 7.94995 34 7.94995Z" fill="white"/>
<path d="M26.0501 17.0356H24.9144C24.3265 17.0356 23.8497 17.5123 23.8497 18.1004C23.8497 18.6885 24.3263 19.1652 24.9144 19.1652H26.0501C26.6381 19.1652 27.1149 18.6885 27.1149 18.1004C27.1149 17.5123 26.6381 17.0356 26.0501 17.0356Z" fill="white"/>
<path d="M45.3571 24.9852H13.5574C12.9694 24.9852 12.4926 25.4619 12.4926 26.05C12.4926 26.6381 12.9693 27.1147 13.5574 27.1147H45.3571C45.945 27.1147 46.4218 26.6381 46.4218 26.05C46.4218 25.4619 45.945 24.9852 45.3571 24.9852Z" fill="white"/>
<path d="M23.7786 31.7994H20.3714C19.7835 31.7994 19.3067 32.2761 19.3067 32.8642C19.3067 33.4523 19.7834 33.929 20.3714 33.929H23.7786C24.3666 33.929 24.8434 33.4523 24.8434 32.8642C24.8434 32.2761 24.3667 31.7994 23.7786 31.7994Z" fill="white"/>
<path d="M15.8287 31.7994H13.5574C12.9694 31.7994 12.4926 32.2761 12.4926 32.8642C12.4926 33.4523 12.9693 33.929 13.5574 33.929H15.8287C16.4167 33.929 16.8935 33.4523 16.8935 32.8642C16.8935 32.2761 16.4167 31.7994 15.8287 31.7994Z" fill="white"/>
<path d="M23.7786 36.3423H20.3714C19.7835 36.3423 19.3067 36.819 19.3067 37.407C19.3067 37.995 19.7834 38.4718 20.3714 38.4718H23.7786C24.3666 38.4718 24.8434 37.9951 24.8434 37.407C24.8434 36.819 24.3667 36.3423 23.7786 36.3423Z" fill="white"/>
<path d="M15.8287 36.3423H13.5574C12.9694 36.3423 12.4926 36.819 12.4926 37.407C12.4926 37.995 12.9693 38.4718 13.5574 38.4718H15.8287C16.4167 38.4718 16.8935 37.9951 16.8935 37.407C16.8935 36.819 16.4167 36.3423 15.8287 36.3423Z" fill="white"/>
<path d="M23.7786 40.8851H20.3714C19.7835 40.8851 19.3067 41.3618 19.3067 41.9499C19.3067 42.538 19.7834 43.0146 20.3714 43.0146H23.7786C24.3666 43.0146 24.8434 42.538 24.8434 41.9499C24.8434 41.3618 24.3667 40.8851 23.7786 40.8851Z" fill="white"/>
<path d="M15.8287 40.8851H13.5574C12.9694 40.8851 12.4926 41.3618 12.4926 41.9499C12.4926 42.538 12.9693 43.0146 13.5574 43.0146H15.8287C16.4167 43.0146 16.8935 42.538 16.8935 41.9499C16.8935 41.3618 16.4167 40.8851 15.8287 40.8851Z" fill="white"/>
<path d="M23.7786 45.4279H20.3714C19.7835 45.4279 19.3067 45.9045 19.3067 46.4926C19.3067 47.0807 19.7834 47.5574 20.3714 47.5574H23.7786C24.3666 47.5574 24.8434 47.0807 24.8434 46.4926C24.8434 45.9045 24.3667 45.4279 23.7786 45.4279Z" fill="white"/>
<path d="M15.8287 45.4279H13.5574C12.9694 45.4279 12.4926 45.9045 12.4926 46.4926C12.4926 47.0807 12.9693 47.5574 13.5574 47.5574H15.8287C16.4167 47.5574 16.8935 47.0807 16.8935 46.4926C16.8935 45.9045 16.4167 45.4279 15.8287 45.4279Z" fill="white"/>
<path d="M23.7786 49.9707H20.3714C19.7835 49.9707 19.3067 50.4474 19.3067 51.0355C19.3067 51.6236 19.7834 52.1002 20.3714 52.1002H23.7786C24.3666 52.1002 24.8434 51.6236 24.8434 51.0355C24.8434 50.4474 24.3667 49.9707 23.7786 49.9707Z" fill="white"/>
<path d="M15.8287 49.9707H13.5574C12.9694 49.9707 12.4926 50.4474 12.4926 51.0355C12.4926 51.6236 12.9693 52.1002 13.5574 52.1002H15.8287C16.4167 52.1002 16.8935 51.6236 16.8935 51.0355C16.8935 50.4474 16.4167 49.9707 15.8287 49.9707Z" fill="white"/>
<path d="M37.4072 17.0356H36.2715C35.6835 17.0356 35.2067 17.5123 35.2067 18.1004C35.2067 18.6885 35.6834 19.1652 36.2715 19.1652H37.4072C37.9951 19.1652 38.4719 18.6885 38.4719 18.1004C38.4719 17.5123 37.9951 17.0356 37.4072 17.0356Z" fill="white"/>
<path d="M43.0856 17.0356H41.9499C41.3619 17.0356 40.8851 17.5123 40.8851 18.1004C40.8851 18.6885 41.3618 19.1652 41.9499 19.1652H43.0856C43.6735 19.1652 44.1503 18.6885 44.1503 18.1004C44.1503 17.5123 43.6737 17.0356 43.0856 17.0356Z" fill="white"/>
<path d="M31.7286 17.0356H30.593C30.005 17.0356 29.5282 17.5123 29.5282 18.1004C29.5282 18.6885 30.0049 19.1652 30.593 19.1652H31.7286C32.3166 19.1652 32.7934 18.6885 32.7934 18.1004C32.7934 17.5123 32.3166 17.0356 31.7286 17.0356Z" fill="white"/>
<path d="M36.2714 12.4928H24.9143C24.3263 12.4928 23.8495 12.9695 23.8495 13.5576C23.8495 14.1456 24.3262 14.6223 24.9143 14.6223H36.2714C36.8593 14.6223 37.3361 14.1456 37.3361 13.5576C37.3361 12.9695 36.8594 12.4928 36.2714 12.4928Z" fill="white"/>
<path d="M56.7141 29.5281H52.1003V12.4218C52.1003 12.1395 51.9883 11.8687 51.7885 11.669L40.4313 0.311844C40.2317 0.112094 39.9609 0 39.6785 0H10.1502C8.3106 0 6.81407 1.49653 6.81407 3.33612V57.8497C6.81407 59.6893 8.3106 61.1858 10.1502 61.1858H27.2567V63.5282C27.2567 65.994 29.2628 68 31.7285 68H56.714C59.1798 68 61.1858 65.9939 61.1858 63.5282V33.9999C61.1859 31.5341 59.1798 29.5281 56.7141 29.5281ZM40.7433 3.63508L48.4653 11.3571H43.0857C41.7941 11.3571 40.7433 10.3062 40.7433 9.01465V3.63508ZM27.2567 33.9999V59.0563H10.1502C9.4848 59.0563 8.94345 58.5149 8.94345 57.8495V3.33612C8.94345 2.67073 9.4848 2.12938 10.1502 2.12938H38.6138V9.01465C38.6138 11.4804 40.6199 13.4864 43.0856 13.4864H49.9708V29.5279H31.7286C29.2628 29.5281 27.2567 31.5341 27.2567 33.9999ZM59.0565 63.5282C59.0565 64.8198 58.0057 65.8706 56.7141 65.8706H31.7286C30.437 65.8706 29.3862 64.8198 29.3862 63.5282V33.9999C29.3862 32.7083 30.437 31.6575 31.7286 31.6575H56.7141C58.0057 31.6575 59.0565 32.7083 59.0565 33.9999V63.5282Z" fill="white"/>
<path d="M54.4426 34.0708H34C32.7866 34.0708 31.7996 35.0579 31.7996 36.2712V40.8141C31.7996 42.0275 32.7866 43.0145 34 43.0145H54.4426C55.656 43.0145 56.6431 42.0275 56.6431 40.8141V36.2712C56.6431 35.0579 55.656 34.0708 54.4426 34.0708ZM54.5137 40.8141C54.5137 40.8533 54.4819 40.885 54.4428 40.885H34C33.9608 40.885 33.9291 40.8533 33.9291 40.8141V36.2712C33.9291 36.2321 33.9608 36.2003 34 36.2003H54.4426C54.4818 36.2003 54.5135 36.2321 54.5135 36.2712V40.8141H54.5137Z" fill="white"/>
<path d="M36.2714 46.5635H34C32.7866 46.5635 31.7996 47.5505 31.7996 48.7639V51.0353C31.7996 52.2486 32.7866 53.2357 34 53.2357H36.2714C37.4847 53.2357 38.4718 52.2486 38.4718 51.0353V48.7639C38.4718 47.5505 37.4847 46.5635 36.2714 46.5635ZM36.3424 51.0354C36.3424 51.0746 36.3107 51.1063 36.2715 51.1063H34C33.9608 51.1063 33.9291 51.0746 33.9291 51.0354V48.764C33.9291 48.7249 33.9608 48.6931 34 48.6931H36.2714C36.3105 48.6931 36.3423 48.7249 36.3423 48.764V51.0354H36.3424Z" fill="white"/>
<path d="M54.4426 46.5635H52.1713C50.9579 46.5635 49.9708 47.5505 49.9708 48.7639V51.0353C49.9708 52.2486 50.9579 53.2357 52.1713 53.2357H54.4426C55.656 53.2357 56.6431 52.2486 56.6431 51.0353V48.7639C56.6431 47.5505 55.656 46.5635 54.4426 46.5635ZM54.5137 51.0354C54.5137 51.0746 54.4819 51.1063 54.4428 51.1063H52.1714C52.1322 51.1063 52.1005 51.0746 52.1005 51.0354V48.764C52.1005 48.7249 52.1322 48.6931 52.1714 48.6931H54.4428C54.4819 48.6931 54.5137 48.7249 54.5137 48.764V51.0354Z" fill="white"/>
<path d="M45.3571 46.5635H43.0857C41.8723 46.5635 40.8853 47.5505 40.8853 48.7639V51.0353C40.8853 52.2486 41.8723 53.2357 43.0857 53.2357H45.3571C46.5704 53.2357 47.5575 52.2486 47.5575 51.0353V48.7639C47.5575 47.5505 46.5704 46.5635 45.3571 46.5635ZM45.428 51.0354C45.428 51.0746 45.3962 51.1063 45.3571 51.1063H43.0857C43.0465 51.1063 43.0148 51.0746 43.0148 51.0354V48.764C43.0148 48.7249 43.0465 48.6931 43.0857 48.6931H45.3571C45.3962 48.6931 45.428 48.7249 45.428 48.764V51.0354Z" fill="white"/>
<path d="M36.2714 55.6493H34C32.7866 55.6493 31.7996 56.6364 31.7996 57.8497V60.1211C31.7996 61.3345 32.7866 62.3215 34 62.3215H36.2714C37.4847 62.3215 38.4718 61.3345 38.4718 60.1211V57.8497C38.4718 56.6364 37.4847 55.6493 36.2714 55.6493ZM36.3424 60.1211C36.3424 60.1603 36.3107 60.192 36.2715 60.192H34C33.9608 60.192 33.9291 60.1603 33.9291 60.1211V57.8497C33.9291 57.8105 33.9608 57.7788 34 57.7788H36.2714C36.3105 57.7788 36.3423 57.8105 36.3423 57.8497V60.1211H36.3424Z" fill="white"/>
<path d="M54.4426 55.6493H52.1713C50.9579 55.6493 49.9708 56.6364 49.9708 57.8497V60.1211C49.9708 61.3345 50.9579 62.3215 52.1713 62.3215H54.4426C55.656 62.3215 56.6431 61.3345 56.6431 60.1211V57.8497C56.6431 56.6364 55.656 55.6493 54.4426 55.6493ZM54.5137 60.1211C54.5137 60.1603 54.4819 60.192 54.4428 60.192H52.1714C52.1322 60.192 52.1005 60.1603 52.1005 60.1211V57.8497C52.1005 57.8105 52.1322 57.7788 52.1714 57.7788H54.4428C54.4819 57.7788 54.5137 57.8105 54.5137 57.8497V60.1211Z" fill="white"/>
<path d="M45.3571 55.6493H43.0857C41.8723 55.6493 40.8853 56.6364 40.8853 57.8497V60.1211C40.8853 61.3345 41.8723 62.3215 43.0857 62.3215H45.3571C46.5704 62.3215 47.5575 61.3345 47.5575 60.1211V57.8497C47.5575 56.6364 46.5704 55.6493 45.3571 55.6493ZM45.428 60.1211C45.428 60.1603 45.3962 60.192 45.3571 60.192H43.0857C43.0465 60.192 43.0148 60.1603 43.0148 60.1211V57.8497C43.0148 57.8105 43.0465 57.7788 43.0857 57.7788H45.3571C45.3962 57.7788 45.428 57.8105 45.428 57.8497V60.1211Z" fill="white"/>
</svg>
