<svg width="68" height="68" viewBox="0 0 68 68" fill="none" xmlns="http://www.w3.org/2000/svg">
<path d="M33.6714 47.6745V54.3425C33.6714 54.4759 33.6714 54.4759 33.6714 54.6092C33.6714 54.7426 33.6714 54.7426 33.5381 54.876C33.5381 55.0093 33.4047 55.0093 33.4047 55.1427C33.4047 55.276 33.2714 55.276 33.2714 55.4094C33.138 55.5427 33.0046 55.6761 32.8713 55.8095C32.8713 55.8095 32.7379 55.9428 32.6046 55.9428C32.4712 55.9428 32.4712 56.0762 32.3378 56.0762C32.2045 56.0762 32.0711 56.2096 32.0711 56.2096C31.9378 56.3429 31.671 56.3429 31.5377 56.4763C31.271 56.6096 31.0042 56.743 30.8709 56.743C30.7375 56.743 30.6042 56.8764 30.4708 56.8764C30.2041 57.0097 30.0707 57.0097 29.804 57.1431C29.5373 57.2764 29.1372 57.2764 28.8705 57.4098C28.7371 57.4098 28.6038 57.5432 28.4704 57.5432C28.2037 57.5432 28.0703 57.6765 27.8036 57.6765C27.4035 57.8099 27.0034 57.8099 26.47 57.9432C26.0699 57.9432 25.6698 58.0766 25.2698 58.0766C24.7363 58.21 24.2029 58.21 23.5361 58.21C23.2693 58.21 23.136 58.21 22.8693 58.21C22.4692 58.21 22.0691 58.21 21.8024 58.21C21.4023 58.21 20.8689 58.21 20.4688 58.21C20.0687 58.21 19.5353 58.21 19.1352 58.21C18.7351 58.21 18.335 58.21 18.0683 58.21C17.8016 58.21 17.6682 58.21 17.4015 58.21C16.8681 58.21 16.2013 58.0766 15.6678 58.0766C15.2677 58.0766 14.8677 57.9432 14.4676 57.9432C14.0675 57.9432 13.534 57.8099 13.134 57.6765C12.8672 57.6765 12.7339 57.5432 12.4672 57.5432C12.3338 57.5432 12.2004 57.5432 12.0671 57.4098C11.667 57.2764 11.4003 57.2764 11.1336 57.1431C10.8668 57.1431 10.7335 57.0097 10.4668 56.8764C10.3334 56.8764 10.2 56.743 10.0667 56.743C9.79996 56.6096 9.53324 56.6096 9.39988 56.4763C9.26652 56.3429 8.9998 56.3429 8.86644 56.2096C8.59972 56.0762 8.46636 55.9428 8.333 55.8095C8.19964 55.8095 8.19964 55.6761 8.06628 55.6761C7.93292 55.5428 7.79956 55.4094 7.6662 55.276C7.6662 55.1427 7.53283 55.1427 7.53283 55.0093C7.53283 54.8759 7.39948 54.8759 7.39948 54.7426C7.39948 54.7426 7.39948 54.6092 7.39948 54.4759C7.39948 54.3425 7.39948 54.3425 7.39948 54.2091V47.5411C7.39948 47.6745 7.39948 47.6745 7.39948 47.8079C7.39948 47.9412 7.39948 47.9412 7.39948 48.0746C7.39948 48.2079 7.53283 48.2079 7.53283 48.3413C7.53283 48.4747 7.6662 48.4747 7.6662 48.608C7.79956 48.7414 7.93292 48.8747 8.06628 49.0081C8.19964 49.0081 8.19964 49.1415 8.333 49.1415C8.46636 49.2748 8.73308 49.4082 8.86644 49.5415C8.9998 49.6749 9.26652 49.6749 9.39988 49.8083C9.6666 49.9416 9.79996 50.075 10.0667 50.075C10.2 50.075 10.3334 50.2083 10.4668 50.2083C10.7335 50.3417 10.8668 50.3417 11.1336 50.4751C11.4003 50.6084 11.8004 50.6084 12.0671 50.7418C12.2004 50.7418 12.3338 50.8751 12.4672 50.8751C12.6005 50.8751 12.8672 51.0085 13.134 51.0085C13.534 51.1419 13.9341 51.1419 14.4676 51.2752C14.8677 51.2752 15.2677 51.4086 15.6678 51.4086C16.2013 51.5419 16.7347 51.5419 17.4015 51.5419C17.6682 51.5419 17.8016 51.5419 18.0683 51.5419C18.4684 51.5419 18.7351 51.5419 19.1352 51.5419C19.5353 51.5419 20.0687 51.5419 20.4688 51.5419C20.8689 51.5419 21.4023 51.5419 21.8024 51.5419C22.2025 51.5419 22.6025 51.5419 22.8693 51.5419C23.136 51.5419 23.2693 51.5419 23.5361 51.5419C24.0695 51.5419 24.7363 51.4086 25.2698 51.4086C25.6698 51.4086 26.0699 51.2752 26.47 51.2752C26.8701 51.2752 27.4035 51.1419 27.8036 51.0085C28.0703 51.0085 28.2037 50.8751 28.4704 50.8751C28.6038 50.8751 28.7371 50.8751 28.8705 50.7418C29.2706 50.6084 29.5373 50.6084 29.804 50.4751C30.0707 50.4751 30.2041 50.3417 30.4708 50.2083C30.6042 50.2083 30.7375 50.075 30.8709 50.075C31.1376 49.9416 31.4043 49.9416 31.5377 49.8083C31.671 49.6749 31.9378 49.6749 32.0711 49.5415C32.2045 49.5415 32.2045 49.4082 32.3378 49.4082C32.4712 49.4082 32.4712 49.2748 32.6046 49.2748C32.7379 49.2748 32.7379 49.1415 32.8713 49.1415C33.0046 49.0081 33.138 48.8747 33.2714 48.7414C33.4047 48.608 33.4047 48.608 33.4047 48.4747C33.4047 48.3413 33.5381 48.3413 33.5381 48.2079C33.5381 48.2079 33.5381 48.0746 33.6714 47.9412C33.6714 47.8079 33.6714 47.8079 33.6714 47.6745Z" stroke="white" stroke-width="1.8" stroke-miterlimit="10"/>
<path d="M60.3436 47.6745V54.3425C60.3436 54.4759 60.3436 54.4759 60.3436 54.6092C60.3436 54.7426 60.3436 54.7426 60.2102 54.876C60.2102 55.0093 60.0768 55.0093 60.0768 55.1427C60.0768 55.276 59.9435 55.276 59.9435 55.4094C59.8101 55.5427 59.6768 55.6761 59.5434 55.8095C59.5434 55.8095 59.41 55.9428 59.2767 55.9428C59.1433 55.9428 59.1433 56.0762 59.01 56.0762C58.8766 56.0762 58.7432 56.2096 58.7432 56.2096C58.6099 56.3429 58.3432 56.3429 58.2098 56.4763C57.9431 56.6096 57.6764 56.743 57.543 56.743C57.4096 56.743 57.2763 56.8764 57.1429 56.8764C56.8762 57.0097 56.7428 57.0097 56.4761 57.1431C56.2094 57.2764 55.8093 57.2764 55.5426 57.4098C55.4092 57.4098 55.2759 57.5432 55.1425 57.5432C54.8758 57.5432 54.7424 57.6765 54.4757 57.6765C54.0756 57.8099 53.6756 57.8099 53.1421 57.9432C52.742 57.9432 52.342 58.0766 51.9419 58.0766C51.4084 58.21 50.875 58.21 50.2082 58.21C49.9415 58.21 49.8081 58.21 49.5414 58.21C49.1413 58.21 48.7412 58.21 48.4745 58.21C48.0744 58.21 47.541 58.21 47.1409 58.21C46.7408 58.21 46.2074 58.21 45.8073 58.21C45.4072 58.21 45.0071 58.21 44.7404 58.21C44.4737 58.21 44.3403 58.21 44.0736 58.21C43.5402 58.21 42.8734 58.0766 42.3399 58.0766C41.9399 58.0766 41.5398 57.9432 41.1397 57.9432C40.7396 57.9432 40.2062 57.8099 39.8061 57.6765C39.5394 57.6765 39.406 57.5432 39.1393 57.5432C39.0059 57.5432 38.8726 57.5432 38.7392 57.4098C38.3391 57.2764 38.0724 57.2764 37.8057 57.1431C37.539 57.1431 37.4056 57.0097 37.1389 56.8764C37.0055 56.8764 36.8722 56.743 36.7388 56.743C36.4721 56.6096 36.2054 56.6096 36.072 56.4763C35.9386 56.3429 35.6719 56.3429 35.5386 56.2096C35.2718 56.0762 35.1385 55.9428 35.0051 55.8095C34.8718 55.8095 34.8718 55.6761 34.7384 55.6761C34.605 55.5428 34.4717 55.4094 34.3383 55.276C34.3383 55.1427 34.205 55.1427 34.205 55.0093C34.205 54.8759 34.0716 54.8759 34.0716 54.7426C34.0716 54.7426 34.0716 54.6092 34.0716 54.4759C34.0716 54.3425 34.0716 54.3425 34.0716 54.2091V47.5411C34.0716 47.6745 34.0716 47.6745 34.0716 47.8079C34.0716 47.9412 34.0716 47.9412 34.0716 48.0746C34.0716 48.2079 34.205 48.2079 34.205 48.3413C34.205 48.4747 34.3383 48.4747 34.3383 48.608C34.4717 48.7414 34.605 48.8747 34.7384 49.0081C34.8718 49.0081 34.8718 49.1415 35.0051 49.1415C35.1385 49.2748 35.4052 49.4082 35.5386 49.5415C35.6719 49.6749 35.9386 49.6749 36.072 49.8083C36.3387 49.9416 36.4721 50.075 36.7388 50.075C36.8722 50.075 37.0055 50.2083 37.1389 50.2083C37.4056 50.3417 37.539 50.3417 37.8057 50.4751C38.0724 50.6084 38.4725 50.6084 38.7392 50.7418C38.8726 50.7418 39.0059 50.8751 39.1393 50.8751C39.2726 50.8751 39.5394 51.0085 39.8061 51.0085C40.2062 51.1419 40.6062 51.1419 41.1397 51.2752C41.5398 51.2752 41.9399 51.4086 42.3399 51.4086C42.8734 51.5419 43.4068 51.5419 44.0736 51.5419C44.3403 51.5419 44.4737 51.5419 44.7404 51.5419C45.1405 51.5419 45.4072 51.5419 45.8073 51.5419C46.2074 51.5419 46.7408 51.5419 47.1409 51.5419C47.541 51.5419 48.0744 51.5419 48.4745 51.5419C48.8746 51.5419 49.2747 51.5419 49.5414 51.5419C49.8081 51.5419 49.9415 51.5419 50.2082 51.5419C50.7416 51.5419 51.4084 51.4086 51.9419 51.4086C52.342 51.4086 52.742 51.2752 53.1421 51.2752C53.5422 51.2752 54.0756 51.1419 54.4757 51.0085C54.7424 51.0085 54.8758 50.8751 55.1425 50.8751C55.2759 50.8751 55.4092 50.8751 55.5426 50.7418C55.9427 50.6084 56.2094 50.6084 56.4761 50.4751C56.7428 50.4751 56.8762 50.3417 57.1429 50.2083C57.2763 50.2083 57.4096 50.075 57.543 50.075C57.8097 49.9416 58.0764 49.9416 58.2098 49.8083C58.3432 49.6749 58.6099 49.6749 58.7432 49.5415C58.8766 49.5415 58.8766 49.4082 59.01 49.4082C59.1433 49.4082 59.1433 49.2748 59.2767 49.2748C59.41 49.2748 59.41 49.1415 59.5434 49.1415C59.6768 49.0081 59.8101 48.8747 59.9435 48.7414C60.0768 48.608 60.0768 48.608 60.0768 48.4747C60.0768 48.3413 60.2102 48.3413 60.2102 48.2079C60.2102 48.2079 60.2102 48.0746 60.3436 47.9412C60.3436 47.8079 60.3436 47.8079 60.3436 47.6745Z" stroke="white" stroke-width="1.8" stroke-miterlimit="10"/>
<path d="M33.6714 41.0066V47.6747C33.6714 47.808 33.6714 47.808 33.6714 47.9414C33.6714 48.0747 33.6714 48.0747 33.5381 48.2081C33.5381 48.3415 33.4047 48.3415 33.4047 48.4748C33.4047 48.6082 33.2714 48.6082 33.2714 48.7415C33.138 48.8749 33.0046 49.0083 32.8713 49.1416C32.8713 49.1416 32.7379 49.275 32.6046 49.275C32.4712 49.275 32.4712 49.4083 32.3378 49.4083C32.2045 49.4083 32.0711 49.5417 32.0711 49.5417C31.9378 49.6751 31.671 49.6751 31.5377 49.8084C31.271 49.9418 31.0042 50.0751 30.8709 50.0751C30.7375 50.0751 30.6042 50.2085 30.4708 50.2085C30.2041 50.3419 30.0707 50.3419 29.804 50.4752C29.5373 50.6086 29.1372 50.6086 28.8705 50.7419C28.7371 50.7419 28.6038 50.8753 28.4704 50.8753C28.2037 50.8753 28.0703 51.0087 27.8036 51.0087C27.4035 51.142 27.0034 51.142 26.47 51.2754C26.0699 51.2754 25.6698 51.4087 25.2698 51.4087C24.7363 51.5421 24.2029 51.5421 23.5361 51.5421C23.2693 51.5421 23.136 51.5421 22.8693 51.5421C22.4692 51.5421 22.0691 51.5421 21.8024 51.5421C21.4023 51.5421 20.8689 51.5421 20.4688 51.5421C20.0687 51.5421 19.5353 51.5421 19.1352 51.5421C18.7351 51.5421 18.335 51.5421 18.0683 51.5421C17.8016 51.5421 17.6682 51.5421 17.4015 51.5421C16.8681 51.5421 16.2013 51.4087 15.6678 51.4087C15.2677 51.4087 14.8677 51.2754 14.4676 51.2754C14.0675 51.2754 13.534 51.142 13.134 51.0087C12.8672 51.0087 12.7339 50.8753 12.4672 50.8753C12.3338 50.8753 12.2004 50.8753 12.0671 50.7419C11.667 50.6086 11.4003 50.6086 11.1336 50.4752C10.8668 50.4752 10.7335 50.3419 10.4668 50.2085C10.3334 50.2085 10.2 50.0751 10.0667 50.0751C9.79996 49.9418 9.53324 49.9418 9.39988 49.8084C9.26652 49.6751 8.9998 49.6751 8.86644 49.5417C8.59972 49.4083 8.46636 49.275 8.333 49.1416C8.19964 49.1416 8.19964 49.0083 8.06628 49.0083C7.93292 48.8749 7.79956 48.7415 7.6662 48.6082C7.6662 48.4748 7.53283 48.4748 7.53283 48.3415C7.53283 48.2081 7.39948 48.2081 7.39948 48.0747C7.39948 48.0747 7.39948 47.9414 7.39948 47.808C7.39948 47.6747 7.39948 47.6747 7.39948 47.5413V40.8733C7.39948 41.0067 7.39948 41.0066 7.39948 41.14C7.39948 41.2734 7.39948 41.2734 7.39948 41.4067C7.39948 41.5401 7.53283 41.5401 7.53283 41.6735C7.53283 41.8068 7.6662 41.8068 7.6662 41.9402C7.79956 42.0735 7.93292 42.2069 8.06628 42.3403C8.19964 42.3403 8.19964 42.4736 8.333 42.4736C8.46636 42.607 8.73308 42.7403 8.86644 42.8737C8.9998 43.0071 9.26652 43.0071 9.39988 43.1404C9.6666 43.2738 9.79996 43.4071 10.0667 43.4071C10.2 43.4071 10.3334 43.5405 10.4668 43.5405C10.7335 43.6739 10.8668 43.6739 11.1336 43.8072C11.4003 43.9406 11.8004 43.9406 12.0671 44.0739C12.2004 44.0739 12.3338 44.2073 12.4672 44.2073C12.6005 44.2073 12.8672 44.3407 13.134 44.3407C13.534 44.474 13.9341 44.474 14.4676 44.6074C14.8677 44.6074 15.2677 44.7407 15.6678 44.7407C16.2013 44.8741 16.7347 44.8741 17.4015 44.8741C17.6682 44.8741 17.8016 44.8741 18.0683 44.8741C18.4684 44.8741 18.7351 44.8741 19.1352 44.8741C19.5353 44.8741 20.0687 44.8741 20.4688 44.8741C20.8689 44.8741 21.4023 44.8741 21.8024 44.8741C22.2025 44.8741 22.6025 44.8741 22.8693 44.8741C23.136 44.8741 23.2693 44.8741 23.5361 44.8741C24.0695 44.8741 24.7363 44.7407 25.2698 44.7407C25.6698 44.7407 26.0699 44.6074 26.47 44.6074C26.8701 44.6074 27.4035 44.474 27.8036 44.3407C28.0703 44.3407 28.2037 44.2073 28.4704 44.2073C28.6038 44.2073 28.7371 44.2073 28.8705 44.0739C29.2706 43.9406 29.5373 43.9406 29.804 43.8072C30.0707 43.8072 30.2041 43.6739 30.4708 43.5405C30.6042 43.5405 30.7375 43.4071 30.8709 43.4071C31.1376 43.2738 31.4043 43.2738 31.5377 43.1404C31.671 43.0071 31.9378 43.0071 32.0711 42.8737C32.2045 42.8737 32.2045 42.7403 32.3378 42.7403C32.4712 42.7403 32.4712 42.607 32.6046 42.607C32.7379 42.607 32.7379 42.4736 32.8713 42.4736C33.0046 42.3402 33.138 42.2069 33.2714 42.0735C33.4047 41.9402 33.4047 41.9402 33.4047 41.8068C33.4047 41.6734 33.5381 41.6735 33.5381 41.5401C33.5381 41.5401 33.5381 41.4067 33.6714 41.2734C33.6714 41.14 33.6714 41.14 33.6714 41.0066Z" stroke="white" stroke-width="1.8" stroke-miterlimit="10"/>
<path d="M60.3436 41.0066V47.6747C60.3436 47.808 60.3436 47.808 60.3436 47.9414C60.3436 48.0747 60.3436 48.0747 60.2102 48.2081C60.2102 48.3415 60.0768 48.3415 60.0768 48.4748C60.0768 48.6082 59.9435 48.6082 59.9435 48.7415C59.8101 48.8749 59.6768 49.0083 59.5434 49.1416C59.5434 49.1416 59.41 49.275 59.2767 49.275C59.1433 49.275 59.1433 49.4083 59.01 49.4083C58.8766 49.4083 58.7432 49.5417 58.7432 49.5417C58.6099 49.6751 58.3432 49.6751 58.2098 49.8084C57.9431 49.9418 57.6764 50.0751 57.543 50.0751C57.4096 50.0751 57.2763 50.2085 57.1429 50.2085C56.8762 50.3419 56.7428 50.3419 56.4761 50.4752C56.2094 50.6086 55.8093 50.6086 55.5426 50.7419C55.4092 50.7419 55.2759 50.8753 55.1425 50.8753C54.8758 50.8753 54.7424 51.0087 54.4757 51.0087C54.0756 51.142 53.6756 51.142 53.1421 51.2754C52.742 51.2754 52.342 51.4087 51.9419 51.4087C51.4084 51.5421 50.875 51.5421 50.2082 51.5421C49.9415 51.5421 49.8081 51.5421 49.5414 51.5421C49.1413 51.5421 48.7412 51.5421 48.4745 51.5421C48.0744 51.5421 47.541 51.5421 47.1409 51.5421C46.7408 51.5421 46.2074 51.5421 45.8073 51.5421C45.4072 51.5421 45.0071 51.5421 44.7404 51.5421C44.4737 51.5421 44.3403 51.5421 44.0736 51.5421C43.5402 51.5421 42.8734 51.4087 42.3399 51.4087C41.9399 51.4087 41.5398 51.2754 41.1397 51.2754C40.7396 51.2754 40.2062 51.142 39.8061 51.0087C39.5394 51.0087 39.406 50.8753 39.1393 50.8753C39.0059 50.8753 38.8726 50.8753 38.7392 50.7419C38.3391 50.6086 38.0724 50.6086 37.8057 50.4752C37.539 50.4752 37.4056 50.3419 37.1389 50.2085C37.0055 50.2085 36.8722 50.0751 36.7388 50.0751C36.4721 49.9418 36.2054 49.9418 36.072 49.8084C35.9386 49.6751 35.6719 49.6751 35.5386 49.5417C35.2718 49.4083 35.1385 49.275 35.0051 49.1416C34.8718 49.1416 34.8718 49.0083 34.7384 49.0083C34.605 48.8749 34.4717 48.7415 34.3383 48.6082C34.3383 48.4748 34.205 48.4748 34.205 48.3415C34.205 48.2081 34.0716 48.2081 34.0716 48.0747C34.0716 48.0747 34.0716 47.9414 34.0716 47.808C34.0716 47.6747 34.0716 47.6747 34.0716 47.5413V40.8733C34.0716 41.0067 34.0716 41.0066 34.0716 41.14C34.0716 41.2734 34.0716 41.2734 34.0716 41.4067C34.0716 41.5401 34.205 41.5401 34.205 41.6735C34.205 41.8068 34.3383 41.8068 34.3383 41.9402C34.4717 42.0735 34.605 42.2069 34.7384 42.3403C34.8718 42.3403 34.8718 42.4736 35.0051 42.4736C35.1385 42.607 35.4052 42.7403 35.5386 42.8737C35.6719 43.0071 35.9386 43.0071 36.072 43.1404C36.3387 43.2738 36.4721 43.4071 36.7388 43.4071C36.8722 43.4071 37.0055 43.5405 37.1389 43.5405C37.4056 43.6739 37.539 43.6739 37.8057 43.8072C38.0724 43.9406 38.4725 43.9406 38.7392 44.0739C38.8726 44.0739 39.0059 44.2073 39.1393 44.2073C39.2726 44.2073 39.5394 44.3407 39.8061 44.3407C40.2062 44.474 40.6062 44.474 41.1397 44.6074C41.5398 44.6074 41.9399 44.7407 42.3399 44.7407C42.8734 44.8741 43.4068 44.8741 44.0736 44.8741C44.3403 44.8741 44.4737 44.8741 44.7404 44.8741C45.1405 44.8741 45.4072 44.8741 45.8073 44.8741C46.2074 44.8741 46.7408 44.8741 47.1409 44.8741C47.541 44.8741 48.0744 44.8741 48.4745 44.8741C48.8746 44.8741 49.2747 44.8741 49.5414 44.8741C49.8081 44.8741 49.9415 44.8741 50.2082 44.8741C50.7416 44.8741 51.4084 44.7407 51.9419 44.7407C52.342 44.7407 52.742 44.6074 53.1421 44.6074C53.5422 44.6074 54.0756 44.474 54.4757 44.3407C54.7424 44.3407 54.8758 44.2073 55.1425 44.2073C55.2759 44.2073 55.4092 44.2073 55.5426 44.0739C55.9427 43.9406 56.2094 43.9406 56.4761 43.8072C56.7428 43.8072 56.8762 43.6739 57.1429 43.5405C57.2763 43.5405 57.4096 43.4071 57.543 43.4071C57.8097 43.2738 58.0764 43.2738 58.2098 43.1404C58.3432 43.0071 58.6099 43.0071 58.7432 42.8737C58.8766 42.8737 58.8766 42.7403 59.01 42.7403C59.1433 42.7403 59.1433 42.607 59.2767 42.607C59.41 42.607 59.41 42.4736 59.5434 42.4736C59.6768 42.3402 59.8101 42.2069 59.9435 42.0735C60.0768 41.9402 60.0768 41.9402 60.0768 41.8068C60.0768 41.6734 60.2102 41.6735 60.2102 41.5401C60.2102 41.5401 60.2102 41.4067 60.3436 41.2734C60.3436 41.14 60.3436 41.14 60.3436 41.0066Z" stroke="white" stroke-width="1.8" stroke-miterlimit="10"/>
<path d="M30.6048 36.8722C29.8046 37.1389 28.8711 37.4056 27.6708 37.6723C25.6704 38.0724 23.0032 38.3391 20.336 38.3391C17.6688 38.3391 15.0016 38.0724 13.0012 37.6723C9.40048 37.0055 7 35.6719 7 34.3383C7 32.0712 13.0012 30.3375 20.336 30.3375V33.0047C20.336 33.1381 20.336 33.1381 20.336 33.2714C20.336 33.4048 20.336 33.4048 20.336 33.5382C20.336 33.6715 20.4694 33.6715 20.4694 33.8049C20.4694 33.9382 20.6027 33.9382 20.6027 34.0716C20.7361 34.205 20.8695 34.3383 21.0028 34.4717C21.1362 34.4717 21.1362 34.6051 21.2695 34.6051C21.4029 34.7384 21.6696 34.8718 21.803 35.0051C21.9363 35.1385 22.2031 35.1385 22.3364 35.2719C22.6031 35.4052 22.7365 35.5386 23.0032 35.5386C23.1366 35.5386 23.2699 35.6719 23.4033 35.6719C23.67 35.8053 23.8034 35.8053 24.0701 35.9387C24.3368 36.072 24.7369 36.072 25.0036 36.2054C25.137 36.2054 25.2704 36.3387 25.4037 36.3387C25.5371 36.3387 25.8038 36.4721 26.0705 36.4721C26.4706 36.6055 26.8707 36.6055 27.4041 36.7388C27.8042 36.7388 28.2043 36.8722 28.6044 36.8722C29.4045 36.7388 29.938 36.8722 30.6048 36.8722Z" stroke="white" stroke-width="1.8" stroke-miterlimit="10"/>
<path d="M33.6714 37.0059V41.0067C33.6714 41.1401 33.6714 41.1401 33.6714 41.2734C33.6714 41.4068 33.6714 41.4068 33.5381 41.5401C33.5381 41.6735 33.4047 41.6735 33.4047 41.8069C33.4047 41.9402 33.2714 41.9402 33.2714 42.0736C33.138 42.2069 33.0046 42.3403 32.8713 42.4737C32.8713 42.4737 32.7379 42.607 32.6046 42.607C32.4712 42.607 32.4712 42.7404 32.3378 42.7404C32.2045 42.7404 32.0711 42.8737 32.0711 42.8737C31.9378 43.0071 31.671 43.0071 31.5377 43.1405C31.271 43.2738 31.0042 43.4072 30.8709 43.4072C30.7375 43.4072 30.6042 43.5405 30.4708 43.5405C30.2041 43.6739 30.0707 43.6739 29.804 43.8073C29.5373 43.9406 29.1372 43.9406 28.8705 44.074C28.7371 44.074 28.6038 44.2073 28.4704 44.2073C28.2037 44.2073 28.0703 44.3407 27.8036 44.3407C27.4035 44.4741 27.0034 44.4741 26.47 44.6074C26.0699 44.6074 25.6698 44.7408 25.2698 44.7408C24.7363 44.8741 24.2029 44.8741 23.5361 44.8741C23.2693 44.8741 23.136 44.8741 22.8693 44.8741C22.4692 44.8741 22.0691 44.8741 21.8024 44.8741C21.4023 44.8741 20.8689 44.8741 20.4688 44.8741C20.0687 44.8741 19.5353 44.8741 19.1352 44.8741C18.7351 44.8741 18.335 44.8741 18.0683 44.8741C17.8016 44.8741 17.6682 44.8741 17.4015 44.8741C16.8681 44.8741 16.2013 44.7408 15.6678 44.7408C15.2677 44.7408 14.8677 44.6074 14.4676 44.6074C14.0675 44.6074 13.534 44.4741 13.134 44.3407C12.8672 44.3407 12.7339 44.2073 12.4672 44.2073C12.3338 44.2073 12.2004 44.2073 12.0671 44.074C11.667 43.9406 11.4003 43.9406 11.1336 43.8073C10.8668 43.8073 10.7335 43.6739 10.4668 43.5405C10.3334 43.5405 10.2 43.4072 10.0667 43.4072C9.79996 43.2738 9.53324 43.2738 9.39988 43.1405C9.26652 43.0071 8.9998 43.0071 8.86644 42.8737C8.59972 42.7404 8.46636 42.607 8.333 42.4737C8.19964 42.4737 8.19964 42.3403 8.06628 42.3403C7.93292 42.2069 7.79956 42.0736 7.6662 41.9402C7.6662 41.8069 7.53283 41.8069 7.53283 41.6735C7.53283 41.5401 7.39948 41.5401 7.39948 41.4068C7.39948 41.4068 7.39948 41.2734 7.39948 41.1401C7.39948 41.0067 7.39948 41.0067 7.39948 40.8733V34.2053C7.39948 35.5389 9.79996 36.8725 13.4007 37.5393C15.5345 37.9394 18.0683 38.2061 20.7355 38.2061C23.4027 38.2061 26.0699 37.9394 28.0703 37.5393C29.1372 37.2726 30.0707 37.0059 31.0042 36.7392C31.1376 36.7392 31.4043 36.7392 31.5377 36.7392C31.9378 36.7392 32.2045 36.7392 32.6046 36.7392C32.7379 37.0059 33.2714 37.0059 33.6714 37.0059Z" stroke="white" stroke-width="1.8" stroke-miterlimit="10"/>
<path d="M60.3437 34.3383C60.3437 35.6719 57.9432 37.0055 54.3424 37.6723C52.342 38.0724 49.6748 38.3391 47.0076 38.3391C44.3404 38.3391 41.6732 38.0724 39.6728 37.6723C38.6059 37.4056 37.6724 37.1389 36.7389 36.8722H36.8723C37.4057 36.8722 38.0725 36.7388 38.6059 36.7388C39.006 36.7388 39.4061 36.6055 39.8062 36.6055C40.2063 36.6055 40.7397 36.4721 41.1398 36.3387C41.4065 36.3387 41.5399 36.2054 41.8066 36.2054C41.9399 36.2054 42.0733 36.2054 42.2067 36.072C42.6067 35.9387 42.8735 35.9387 43.1402 35.8053C43.4069 35.8053 43.5403 35.6719 43.807 35.5386C43.9403 35.5386 44.0737 35.4052 44.2071 35.4052C44.4738 35.2719 44.7405 35.2718 44.8739 35.1385C45.0072 35.0051 45.2739 35.0051 45.4073 34.8718C45.5407 34.8718 45.5407 34.7384 45.674 34.7384C45.8074 34.7384 45.8074 34.6051 45.9408 34.6051C46.0741 34.6051 46.0741 34.4717 46.2075 34.4717C46.3408 34.3383 46.4742 34.205 46.6076 34.0716C46.7409 33.9382 46.7409 33.9382 46.7409 33.8049C46.7409 33.6715 46.8743 33.6715 46.8743 33.5382C46.8743 33.5382 46.8743 33.4048 47.0076 33.2714C47.0076 33.1381 47.0076 33.1381 47.0076 33.0047V30.3375C54.3424 30.3375 60.3437 32.0712 60.3437 34.3383Z" stroke="white" stroke-width="1.8" stroke-miterlimit="10"/>
<path d="M60.3436 34.3384V41.0064C60.3436 41.1398 60.3436 41.1398 60.3436 41.2731C60.3436 41.4065 60.3436 41.4065 60.2103 41.5398C60.2103 41.6732 60.0769 41.6732 60.0769 41.8065C60.0769 41.9399 59.9435 41.9399 59.9435 42.0733C59.8102 42.2066 59.6768 42.34 59.5435 42.4734C59.5435 42.4734 59.4101 42.6067 59.2767 42.6067C59.1434 42.6067 59.1434 42.7401 59.01 42.7401C58.8767 42.7401 58.7433 42.8734 58.7433 42.8734C58.6099 43.0068 58.3432 43.0068 58.2099 43.1402C57.9431 43.2735 57.6764 43.4069 57.5431 43.4069C57.4097 43.4069 57.2763 43.5402 57.143 43.5402C56.8763 43.6736 56.7429 43.6736 56.4762 43.807C56.2095 43.9403 55.8094 43.9403 55.5427 44.0737C55.4093 44.0737 55.2759 44.207 55.1426 44.207C54.8759 44.207 54.7425 44.3404 54.4758 44.3404C54.0757 44.4738 53.6756 44.4738 53.1422 44.6071C52.7421 44.6071 52.342 44.7405 51.9419 44.7405C51.4085 44.8738 50.8751 44.8738 50.2083 44.8738C49.9415 44.8738 49.8082 44.8738 49.5414 44.8738C49.1414 44.8738 48.7413 44.8738 48.4746 44.8738C48.0745 44.8738 47.541 44.8738 47.141 44.8738C46.7409 44.8738 46.2074 44.8738 45.8074 44.8738C45.4073 44.8738 45.0072 44.8738 44.7405 44.8738C44.4738 44.8738 44.3404 44.8738 44.0737 44.8738C43.5402 44.8738 42.8734 44.7405 42.34 44.7405C41.9399 44.7405 41.5398 44.6071 41.1397 44.6071C40.7397 44.6071 40.2062 44.4738 39.8061 44.3404C39.5394 44.3404 39.4061 44.207 39.1393 44.207C39.006 44.207 38.8726 44.207 38.7393 44.0737C38.3392 43.9403 38.0725 43.9403 37.8057 43.807C37.539 43.807 37.4057 43.6736 37.1389 43.5402C37.0056 43.5402 36.8722 43.4069 36.7389 43.4069C36.4721 43.2735 36.2054 43.2735 36.0721 43.1402C35.9387 43.0068 35.672 43.0068 35.5386 42.8734C35.2719 42.7401 35.1385 42.6067 35.0052 42.4734C34.8718 42.4734 34.8718 42.34 34.7385 42.34C34.6051 42.2066 34.4717 42.0733 34.3384 41.9399C34.3384 41.8066 34.205 41.8066 34.205 41.6732C34.205 41.5398 34.0717 41.5398 34.0717 41.4065C34.0717 41.4065 34.0717 41.2731 34.0717 41.1397C34.0717 41.0064 34.0717 41.0064 34.0717 40.873V36.8722C34.4717 36.8722 35.0052 36.8722 35.4053 36.8722C35.8053 36.8722 36.2054 36.8722 36.4721 36.8722C36.6055 36.8722 36.8722 36.8722 37.0056 36.8722C37.8057 37.1389 38.8726 37.4057 39.9395 37.6724C42.0733 38.0725 44.6071 38.3392 47.2743 38.3392C49.9415 38.3392 52.6087 38.0725 54.6091 37.6724C57.9431 37.0056 60.3436 35.672 60.3436 34.3384Z" stroke="white" stroke-width="1.8" stroke-miterlimit="10"/>
<path d="M47.0076 26.3371V33.0051C47.0076 33.1385 47.0076 33.1385 47.0076 33.2718C47.0076 33.4052 47.0076 33.4052 46.8743 33.5385C46.8743 33.6719 46.7409 33.6719 46.7409 33.8053C46.7409 33.9386 46.6076 33.9386 46.6076 34.072C46.4742 34.2053 46.3408 34.3387 46.2075 34.4721C46.2075 34.4721 46.0741 34.6054 45.9407 34.6054C45.8074 34.6054 45.8074 34.7388 45.674 34.7388C45.5407 34.7388 45.4073 34.8722 45.4073 34.8722C45.2739 35.0055 45.0072 35.0055 44.8739 35.1389C44.6071 35.2722 44.3404 35.4056 44.2071 35.4056C44.0737 35.4056 43.9403 35.539 43.807 35.539C43.5403 35.6723 43.4069 35.6723 43.1402 35.8057C42.8735 35.939 42.4734 35.939 42.2067 36.0724C42.0733 36.0724 41.9399 36.2058 41.8066 36.2058C41.5399 36.2058 41.4065 36.3391 41.1398 36.3391C40.7397 36.4725 40.3396 36.4725 39.8062 36.6058C39.4061 36.6058 39.006 36.7392 38.6059 36.7392C38.0725 36.8726 37.5391 36.8726 36.8723 36.8726H36.7389C36.6055 36.8726 36.3388 36.8726 36.2055 36.8726C35.8054 36.8726 35.4053 36.8726 35.1386 36.8726C34.7385 36.8726 34.205 36.8726 33.805 36.8726C33.4049 36.8726 32.8714 36.8726 32.4714 36.8726C32.0713 36.8726 31.6712 36.8726 31.4045 36.8726C31.1378 36.8726 31.0044 36.8726 30.871 36.8726H30.7377C30.2042 36.8726 29.5374 36.7392 29.004 36.7392C28.6039 36.7392 28.2038 36.6058 27.8038 36.6058C27.4037 36.6058 26.8702 36.4725 26.4701 36.3391C26.2034 36.3391 26.0701 36.2058 25.8033 36.2058C25.67 36.2058 25.5366 36.2058 25.4033 36.0724C25.0032 35.939 24.7365 35.939 24.4697 35.8057C24.203 35.8057 24.0697 35.6723 23.8029 35.539C23.6696 35.539 23.5362 35.4056 23.4029 35.4056C23.1361 35.2722 22.8694 35.2722 22.7361 35.1389C22.6027 35.0055 22.336 35.0055 22.2026 34.8722C21.9359 34.7388 21.8025 34.6054 21.6692 34.4721C21.5358 34.4721 21.5358 34.3387 21.4025 34.3387C21.2691 34.2053 21.1357 34.072 21.0024 33.9386C21.0024 33.8053 20.869 33.8053 20.869 33.6719C20.869 33.5385 20.7357 33.5385 20.7357 33.4052C20.7357 33.4052 20.7357 33.2718 20.7357 33.1385C20.7357 33.0051 20.7357 33.0051 20.7357 32.8717V26.2037C20.7357 26.3371 20.7357 26.3371 20.7357 26.4705C20.7357 26.6038 20.7357 26.6038 20.7357 26.7372C20.7357 26.8705 20.869 26.8705 20.869 27.0039C20.869 27.1373 21.0024 27.1373 21.0024 27.2706C21.1357 27.404 21.2691 27.5373 21.4025 27.6707C21.5358 27.6707 21.5358 27.8041 21.6692 27.8041C21.8025 27.9374 22.0693 28.0708 22.2026 28.2041C22.336 28.3375 22.6027 28.3375 22.7361 28.4709C23.0028 28.6042 23.1361 28.7376 23.4029 28.7376C23.5362 28.7376 23.6696 28.8709 23.8029 28.8709C24.0697 29.0043 24.203 29.0043 24.4697 29.1377C24.7365 29.271 25.1365 29.271 25.4033 29.4044C25.5366 29.4044 25.67 29.5377 25.8033 29.5377C25.9367 29.5377 26.2034 29.6711 26.4701 29.6711C26.8702 29.8045 27.2703 29.8045 27.8038 29.9378C28.2038 29.9378 28.6039 30.0712 29.004 30.0712C29.5374 30.2045 30.0709 30.2045 30.7377 30.2045C31.0044 30.2045 31.1378 30.2045 31.4045 30.2045C31.8046 30.2045 32.0713 30.2045 32.4714 30.2045C32.8714 30.2045 33.4049 30.2045 33.805 30.2045C34.205 30.2045 34.7385 30.2045 35.1386 30.2045C35.5386 30.2045 35.9387 30.2045 36.2055 30.2045C36.4722 30.2045 36.6055 30.2045 36.8723 30.2045C37.4057 30.2045 38.0725 30.0712 38.6059 30.0712C39.006 30.0712 39.4061 29.9378 39.8062 29.9378C40.2063 29.9378 40.7397 29.8045 41.1398 29.6711C41.4065 29.6711 41.5399 29.5377 41.8066 29.5377C41.9399 29.5377 42.0733 29.5377 42.2067 29.4044C42.6067 29.271 42.8735 29.271 43.1402 29.1377C43.4069 29.1377 43.5403 29.0043 43.807 28.8709C43.9403 28.8709 44.0737 28.7376 44.2071 28.7376C44.4738 28.6042 44.7405 28.6042 44.8739 28.4709C45.0072 28.3375 45.2739 28.3375 45.4073 28.2041C45.5407 28.2041 45.5407 28.0708 45.674 28.0708C45.8074 28.0708 45.8074 27.9374 45.9407 27.9374C46.0741 27.9374 46.0741 27.8041 46.2075 27.8041C46.3408 27.6707 46.4742 27.5373 46.6076 27.404C46.7409 27.2706 46.7409 27.2706 46.7409 27.1373C46.7409 27.0039 46.8743 27.0039 46.8743 26.8705C46.8743 26.8705 46.8743 26.7372 47.0076 26.6038C47.0076 26.4705 47.0076 26.4705 47.0076 26.3371Z" stroke="white" stroke-width="1.8" stroke-miterlimit="10"/>
<path d="M47.0076 19.669V26.337C47.0076 26.4704 47.0076 26.4704 47.0076 26.6037C47.0076 26.7371 47.0076 26.7371 46.8743 26.8705C46.8743 27.0038 46.7409 27.0038 46.7409 27.1372C46.7409 27.2705 46.6076 27.2705 46.6076 27.4039C46.4742 27.5373 46.3408 27.6706 46.2075 27.804C46.2075 27.804 46.0741 27.9373 45.9407 27.9373C45.8074 27.9373 45.8074 28.0707 45.674 28.0707C45.5407 28.0707 45.4073 28.2041 45.4073 28.2041C45.2739 28.3374 45.0072 28.3374 44.8739 28.4708C44.6071 28.6041 44.3404 28.7375 44.2071 28.7375C44.0737 28.7375 43.9403 28.8709 43.807 28.8709C43.5403 29.0042 43.4069 29.0042 43.1402 29.1376C42.8735 29.2709 42.4734 29.2709 42.2067 29.4043C42.0733 29.4043 41.9399 29.5377 41.8066 29.5377C41.5399 29.5377 41.4065 29.671 41.1398 29.671C40.7397 29.8044 40.3396 29.8044 39.8062 29.9377C39.4061 29.9377 39.006 30.0711 38.6059 30.0711C38.0725 30.2045 37.5391 30.2045 36.8723 30.2045C36.6055 30.2045 36.4722 30.2045 36.2055 30.2045C35.8054 30.2045 35.4053 30.2045 35.1386 30.2045C34.7385 30.2045 34.205 30.2045 33.805 30.2045C33.4049 30.2045 32.8714 30.2045 32.4714 30.2045C32.0713 30.2045 31.6712 30.2045 31.4045 30.2045C31.1378 30.2045 31.0044 30.2045 30.7377 30.2045C30.2042 30.2045 29.5374 30.0711 29.004 30.0711C28.6039 30.0711 28.2038 29.9377 27.8038 29.9377C27.4037 29.9377 26.8702 29.8044 26.4701 29.671C26.2034 29.671 26.0701 29.5377 25.8033 29.5377C25.67 29.5377 25.5366 29.5377 25.4033 29.4043C25.0032 29.2709 24.7365 29.2709 24.4697 29.1376C24.203 29.1376 24.0697 29.0042 23.8029 28.8709C23.6696 28.8709 23.5362 28.7375 23.4029 28.7375C23.1361 28.6041 22.8694 28.6041 22.7361 28.4708C22.6027 28.3374 22.336 28.3374 22.2026 28.2041C21.9359 28.0707 21.8025 27.9373 21.6692 27.804C21.5358 27.804 21.5358 27.6706 21.4025 27.6706C21.2691 27.5373 21.1357 27.4039 21.0024 27.2705C21.0024 27.1372 20.869 27.1372 20.869 27.0038C20.869 26.8705 20.7357 26.8705 20.7357 26.7371C20.7357 26.7371 20.7357 26.6037 20.7357 26.4704C20.7357 26.337 20.7357 26.337 20.7357 26.2037V19.5356C20.7357 19.669 20.7357 19.669 20.7357 19.8024C20.7357 19.9357 20.7357 19.9357 20.7357 20.0691C20.7357 20.2024 20.869 20.2024 20.869 20.3358C20.869 20.4692 21.0024 20.4692 21.0024 20.6025C21.1357 20.7359 21.2691 20.8692 21.4025 21.0026C21.5358 21.0026 21.5358 21.136 21.6692 21.136C21.8025 21.2693 22.0693 21.4027 22.2026 21.536C22.336 21.6694 22.6027 21.6694 22.7361 21.8028C23.0028 21.9361 23.1361 22.0695 23.4029 22.0695C23.5362 22.0695 23.6696 22.2028 23.8029 22.2028C24.0697 22.3362 24.203 22.3362 24.4697 22.4696C24.7365 22.6029 25.1365 22.6029 25.4033 22.7363C25.5366 22.7363 25.67 22.8697 25.8033 22.8697C25.9367 22.8697 26.2034 23.003 26.4701 23.003C26.8702 23.1364 27.2703 23.1364 27.8038 23.2697C28.2038 23.2697 28.6039 23.4031 29.004 23.4031C29.5374 23.5365 30.0709 23.5365 30.7377 23.5365C31.0044 23.5365 31.1378 23.5365 31.4045 23.5365C31.8046 23.5365 32.0713 23.5365 32.4714 23.5365C32.8714 23.5365 33.4049 23.5365 33.805 23.5365C34.205 23.5365 34.7385 23.5365 35.1386 23.5365C35.5386 23.5365 35.9387 23.5365 36.2055 23.5365C36.4722 23.5365 36.6055 23.5365 36.8723 23.5365C37.4057 23.5365 38.0725 23.4031 38.6059 23.4031C39.006 23.4031 39.4061 23.2697 39.8062 23.2697C40.2063 23.2697 40.7397 23.1364 41.1398 23.003C41.4065 23.003 41.5399 22.8697 41.8066 22.8697C41.9399 22.8697 42.0733 22.8697 42.2067 22.7363C42.6067 22.6029 42.8735 22.6029 43.1402 22.4696C43.4069 22.4696 43.5403 22.3362 43.807 22.2028C43.9403 22.2028 44.0737 22.0695 44.2071 22.0695C44.4738 21.9361 44.7405 21.9361 44.8739 21.8028C45.0072 21.6694 45.2739 21.6694 45.4073 21.536C45.5407 21.536 45.5407 21.4027 45.674 21.4027C45.8074 21.4027 45.8074 21.2693 45.9407 21.2693C46.0741 21.2693 46.0741 21.136 46.2075 21.136C46.3408 21.0026 46.4742 20.8692 46.6076 20.7359C46.7409 20.6025 46.7409 20.6025 46.7409 20.4692C46.7409 20.3358 46.8743 20.3358 46.8743 20.2024C46.8743 20.2024 46.8743 20.0691 47.0076 19.9357C47.0076 19.8024 47.0076 19.8024 47.0076 19.669Z" stroke="white" stroke-width="1.8" stroke-miterlimit="10"/>
<path d="M47.008 13.0008C47.008 14.3344 44.6075 15.668 41.0068 16.3348C39.0064 16.7349 36.3392 17.0016 33.672 17.0016C31.0048 17.0016 28.3376 16.7349 26.3371 16.3348C22.7364 15.668 20.3359 14.3344 20.3359 13.0008C20.3359 10.7337 26.3371 9 33.672 9C41.0068 9 47.008 10.7337 47.008 13.0008Z" stroke="white" stroke-width="1.8" stroke-miterlimit="10"/>
<path d="M47.0076 13.001V19.669C47.0076 19.8024 47.0076 19.8024 47.0076 19.9358C47.0076 20.0691 47.0076 20.0691 46.8743 20.2025C46.8743 20.3358 46.7409 20.3359 46.7409 20.4692C46.7409 20.6026 46.6076 20.6026 46.6076 20.7359C46.4742 20.8693 46.3408 21.0027 46.2075 21.136C46.2075 21.136 46.0741 21.2694 45.9407 21.2694C45.8074 21.2694 45.8074 21.4027 45.674 21.4027C45.5407 21.4027 45.4073 21.5361 45.4073 21.5361C45.2739 21.6695 45.0072 21.6695 44.8739 21.8028C44.6071 21.9362 44.3404 22.0695 44.2071 22.0695C44.0737 22.0695 43.9403 22.2029 43.807 22.2029C43.5403 22.3363 43.4069 22.3363 43.1402 22.4696C42.8735 22.603 42.4734 22.603 42.2067 22.7363C42.0733 22.7363 41.9399 22.8697 41.8066 22.8697C41.5399 22.8697 41.4065 23.0031 41.1398 23.0031C40.7397 23.1364 40.3396 23.1364 39.8062 23.2698C39.4061 23.2698 39.006 23.4031 38.6059 23.4031C38.0725 23.5365 37.5391 23.5365 36.8723 23.5365C36.6055 23.5365 36.4722 23.5365 36.2055 23.5365C35.8054 23.5365 35.4053 23.5365 35.1386 23.5365C34.7385 23.5365 34.205 23.5365 33.805 23.5365C33.4049 23.5365 32.8714 23.5365 32.4714 23.5365C32.0713 23.5365 31.6712 23.5365 31.4045 23.5365C31.1378 23.5365 31.0044 23.5365 30.7377 23.5365C30.2042 23.5365 29.5374 23.4031 29.004 23.4031C28.6039 23.4031 28.2038 23.2698 27.8038 23.2698C27.4037 23.2698 26.8702 23.1364 26.4701 23.0031C26.2034 23.0031 26.0701 22.8697 25.8033 22.8697C25.67 22.8697 25.5366 22.8697 25.4033 22.7363C25.0032 22.603 24.7365 22.603 24.4697 22.4696C24.203 22.4696 24.0697 22.3363 23.8029 22.2029C23.6696 22.2029 23.5362 22.0695 23.4029 22.0695C23.1361 21.9362 22.8694 21.9362 22.7361 21.8028C22.6027 21.6695 22.336 21.6695 22.2026 21.5361C21.9359 21.4027 21.8025 21.2694 21.6692 21.136C21.5358 21.136 21.5358 21.0027 21.4025 21.0027C21.2691 20.8693 21.1357 20.7359 21.0024 20.6026C21.0024 20.4692 20.869 20.4692 20.869 20.3358C20.869 20.2025 20.7357 20.2025 20.7357 20.0691C20.7357 20.0691 20.7357 19.9358 20.7357 19.8024C20.7357 19.669 20.7357 19.669 20.7357 19.5357V12.8677C20.7357 14.2013 23.1361 15.5349 26.7369 16.2017C28.8706 16.6018 31.4045 16.8685 34.0717 16.8685C36.7389 16.8685 39.4061 16.6018 41.4065 16.2017C44.6071 15.6682 47.0076 14.3346 47.0076 13.001Z" stroke="white" stroke-width="1.8" stroke-miterlimit="10"/>
</svg>
