<svg width="90" height="90" viewBox="0 0 90 90" fill="none" xmlns="http://www.w3.org/2000/svg">
<path d="M30.5333 40.299V39.299H29.5333C29.2673 39.299 28.6551 39.1464 27.8269 38.6586C27.0291 38.1886 26.1146 37.4555 25.2499 36.4251C23.5303 34.3761 22 31.142 22 26.4496C22 23.0505 23.4697 20.4819 25.193 18.7487C26.0573 17.8794 26.9769 17.23 27.7863 16.8025C28.6272 16.3584 29.2502 16.2052 29.5333 16.2052H31.5248C33.7657 19.7101 37.6793 22.0375 42.1371 22.0375C46.5938 22.0375 50.5067 19.711 52.7478 16.2076H53.2885C55.3279 16.2076 57.1496 17.5063 57.8245 19.4536L65.3779 41.2473C65.8329 42.5601 65.1421 43.9884 63.8504 44.4422C62.5614 44.8949 61.1445 44.2123 60.6906 42.9028L55.6168 28.2628L53.6719 28.5903V86.1791C53.6719 87.7329 52.4081 88.9973 50.8815 89C50.8798 89 50.8782 89 50.8765 89L50.8652 88.9998L50.8542 88.9997L50.8433 88.9998L50.8319 89C50.8303 89 50.8286 89 50.827 89C49.3004 88.9973 48.0365 87.7329 48.0365 86.1791V58.9425V57.9425H47.0365H37.1686H36.1686V58.9425V86.1791C36.1686 87.7329 34.9048 88.9973 33.3782 89C33.3765 89 33.3749 89 33.3732 89L33.3619 88.9998L33.3509 88.9997L33.34 88.9998L33.3287 89C33.327 89 33.3253 89 33.3237 89C31.7971 88.9973 30.5333 87.7329 30.5333 86.1791V40.299ZM50.3485 9.35425C50.3485 13.9748 46.6312 17.7085 42.0607 17.7085C37.4901 17.7085 33.7728 13.9748 33.7728 9.35425C33.7728 4.7336 37.4901 1 42.0607 1C46.6313 1 50.3485 4.7336 50.3485 9.35425ZM57.0685 53.7626C57.0685 50.4356 59.7457 47.7501 63.0343 47.7501C66.3229 47.7501 69 50.4356 69 53.7626V86.4877C69 87.2327 68.4019 87.8252 67.6781 87.8252C66.9543 87.8252 66.3562 87.2327 66.3562 86.4877V53.7626C66.3562 51.9256 64.8752 50.4251 63.0343 50.4251C61.1933 50.4251 59.7124 51.9256 59.7124 53.7626V55.321C59.7124 56.0661 59.1143 56.6585 58.3904 56.6585C57.6666 56.6585 57.0685 56.0661 57.0685 55.321V53.7626Z" stroke="#00AA55" stroke-width="2"/>
</svg>
