<svg width="90" height="90" viewBox="0 0 90 90" fill="none" xmlns="http://www.w3.org/2000/svg">
<path d="M28.125 50.625C25.3437 50.625 22.6249 51.4497 20.3123 52.995C17.9997 54.5402 16.1973 56.7364 15.1329 59.306C14.0686 61.8756 13.7901 64.7031 14.3327 67.431C14.8753 70.1588 16.2146 72.6645 18.1813 74.6312C20.148 76.5979 22.6537 77.9372 25.3815 78.4798C28.1094 79.0224 30.9369 78.7439 33.5065 77.6796C36.0761 76.6152 38.2723 74.8128 39.8175 72.5002C41.3627 70.1876 42.1875 67.4688 42.1875 64.6875C42.1875 60.9579 40.7059 57.381 38.0687 54.7438C35.4315 52.1066 31.8546 50.625 28.125 50.625ZM28.125 70.3125C27.0125 70.3125 25.9249 69.9826 24.9999 69.3645C24.0749 68.7464 23.3539 67.8679 22.9282 66.8401C22.5024 65.8123 22.391 64.6813 22.6081 63.5901C22.8251 62.499 23.3609 61.4967 24.1475 60.71C24.9342 59.9234 25.9365 59.3876 27.0276 59.1706C28.1188 58.9535 29.2498 59.0649 30.2776 59.4907C31.3054 59.9164 32.1839 60.6374 32.802 61.5624C33.4201 62.4874 33.75 63.575 33.75 64.6875C33.75 66.1793 33.1574 67.6101 32.1025 68.665C31.0476 69.7199 29.6168 70.3125 28.125 70.3125ZM16.875 45C16.0401 45.0007 15.2238 44.7536 14.5295 44.2901C13.8351 43.8266 13.2938 43.1674 12.9743 42.3961C12.6547 41.6249 12.5711 40.7761 12.7342 39.9573C12.8972 39.1385 13.2996 38.3865 13.8902 37.7965L17.9297 33.75L13.8902 29.7035C13.0977 28.911 12.6525 27.8361 12.6525 26.7152C12.6525 25.5944 13.0977 24.5195 13.8902 23.727C14.6828 22.9344 15.7577 22.4892 16.8785 22.4892C17.9993 22.4892 19.0743 22.9344 19.8668 23.727L23.9063 27.7734L27.9527 23.734C28.7453 22.9414 29.8202 22.4962 30.941 22.4962C32.0618 22.4962 33.1368 22.9414 33.9293 23.734C34.7218 24.5265 35.1671 25.6014 35.1671 26.7223C35.1671 27.8431 34.7218 28.918 33.9293 29.7105L29.8828 33.75L33.9328 37.7965C34.7254 38.589 35.1706 39.6639 35.1706 40.7848C35.1706 41.9056 34.7254 42.9805 33.9328 43.773C33.1403 44.5656 32.0654 45.0108 30.9445 45.0108C29.8237 45.0108 28.7488 44.5656 27.9563 43.773L23.9063 39.7266L19.8598 43.766C19.4677 44.1577 19.0023 44.4682 18.4901 44.68C17.978 44.8917 17.4292 45.0004 16.875 45ZM81.7348 71.5465C82.5273 72.339 82.9726 73.4139 82.9726 74.5348C82.9726 75.6556 82.5273 76.7305 81.7348 77.523C80.9422 78.3156 79.8673 78.7608 78.7465 78.7608C77.6257 78.7608 76.5508 78.3156 75.7582 77.523L71.7188 73.4766L67.6723 77.5266C66.8797 78.3191 65.8048 78.7644 64.684 78.7644C63.5632 78.7644 62.4883 78.3191 61.6957 77.5266C60.9032 76.734 60.4579 75.6591 60.4579 74.5383C60.4579 73.4175 60.9032 72.3425 61.6957 71.55L65.7422 67.5L61.6922 63.4535C60.8996 62.661 60.4544 61.5861 60.4544 60.4652C60.4544 59.3444 60.8996 58.2695 61.6922 57.477C62.4847 56.6844 63.5596 56.2392 64.6805 56.2392C65.8013 56.2392 66.8762 56.6844 67.6688 57.477L71.7188 61.5234L75.7652 57.4734C76.5578 56.6809 77.6327 56.2356 78.7535 56.2356C79.8743 56.2356 80.9493 56.6809 81.7418 57.4734C82.5343 58.266 82.9796 59.3409 82.9796 60.4617C82.9796 61.5825 82.5343 62.6575 81.7418 63.45L77.6953 67.5L81.7348 71.5465ZM66.477 38.9848C64.6453 47.0707 58.275 54.2883 50.625 56.9918C50.1026 57.1765 49.549 57.2564 48.9957 57.2271C48.4424 57.1978 47.9003 57.0599 47.4003 56.8211C46.3906 56.3388 45.6138 55.4751 45.2408 54.4201C44.8679 53.3651 44.9293 52.2051 45.4116 51.1954C45.8938 50.1857 46.7575 49.4089 47.8125 49.0359C52.759 47.2781 57.048 42.3879 58.2434 37.118C59.0766 33.4406 58.384 29.7914 56.2465 26.3813V29.5453C56.2465 30.6642 55.802 31.7373 55.0108 32.5284C54.2197 33.3196 53.1466 33.7641 52.0277 33.7641C50.9089 33.7641 49.8358 33.3196 49.0446 32.5284C48.2535 31.7373 47.809 30.6642 47.809 29.5453V15.4688C47.809 14.3499 48.2535 13.2768 49.0446 12.4856C49.8358 11.6945 50.9089 11.25 52.0277 11.25H66.0902C67.2091 11.25 68.2822 11.6945 69.0733 12.4856C69.8645 13.2768 70.309 14.3499 70.309 15.4688C70.309 16.5876 69.8645 17.6607 69.0733 18.4519C68.2822 19.243 67.2091 19.6875 66.0902 19.6875H61.875C66.3645 25.527 67.9992 32.2594 66.477 38.9848Z" fill="#00AA55"/>
</svg>
