<svg width="90" height="90" viewBox="0 0 90 90" fill="none" xmlns="http://www.w3.org/2000/svg">
<path d="M52.5 7.5H37.5C25.2 7.5 19.0537 7.5 14.6962 10.5525C13.0839 11.6815 11.6815 13.0839 10.5525 14.6962C7.5 19.05 7.5 25.2 7.5 37.5C7.5 49.8 7.5 55.9462 10.5525 60.3037C11.6815 61.9161 13.0839 63.3185 14.6962 64.4475C19.05 67.5 25.2 67.5 37.5 67.5H52.5C64.8 67.5 70.9462 67.5 75.3037 64.4475C76.9161 63.3185 78.3185 61.9161 79.4475 60.3037C82.5 55.95 82.5 49.8 82.5 37.5C82.5 25.2 82.5 19.0537 79.4475 14.6962C78.3185 13.0839 76.9161 11.6815 75.3037 10.5525C70.95 7.5 64.8 7.5 52.5 7.5Z" stroke="#00AA55" stroke-width="6.5" stroke-linecap="round" stroke-linejoin="round"/>
<path d="M60 30L64.6012 33.9638C66.5325 35.6325 67.5 36.465 67.5 37.5C67.5 38.535 66.5325 39.3675 64.6012 41.0362L60 45M30 30L25.3987 33.9638C23.4675 35.6325 22.5 36.465 22.5 37.5C22.5 38.535 23.4675 39.3675 25.3987 41.0362L30 45M48.75 26.25L41.25 48.75M54.96 82.5L53.385 80.9287C51.658 79.2024 50.5185 76.9762 50.1281 74.5657C49.7377 72.1553 50.1162 69.6832 51.21 67.5M33.75 82.5L35.325 80.9287C37.052 79.2024 38.1915 76.9762 38.5819 74.5657C38.9723 72.1553 38.5938 69.6832 37.5 67.5M26.25 82.5H63.75" stroke="#00AA55" stroke-width="6.5" stroke-linecap="round" stroke-linejoin="round"/>
</svg>
