<svg width="90" height="90" viewBox="0 0 90 90" fill="none" xmlns="http://www.w3.org/2000/svg">
<path d="M52.5 33.75H78.75C80.8125 33.75 82.5 32.0625 82.5 30C82.5 27.9375 80.8125 26.25 78.75 26.25H52.5C50.4375 26.25 48.75 27.9375 48.75 30C48.75 32.0625 50.4375 33.75 52.5 33.75ZM78.75 56.25H52.5C50.4375 56.25 48.75 57.9375 48.75 60C48.75 62.0625 50.4375 63.75 52.5 63.75H78.75C80.8125 63.75 82.5 62.0625 82.5 60C82.5 57.9375 80.8125 56.25 78.75 56.25ZM78.75 41.25H63.75C61.6875 41.25 60 42.9375 60 45C60 47.0625 61.6875 48.75 63.75 48.75H78.75C80.8125 48.75 82.5 47.0625 82.5 45C82.5 42.9375 80.8125 41.25 78.75 41.25ZM33.1875 29.4375C32.9231 29.1784 32.588 29.0033 32.2243 28.9343C31.8606 28.8653 31.4846 28.9056 31.1437 29.05C30.8029 29.1943 30.5123 29.4364 30.3088 29.7456C30.1053 30.0548 29.9978 30.4173 30 30.7875V41.25H11.25C9.1875 41.25 7.5 42.9375 7.5 45C7.5 47.0625 9.1875 48.75 11.25 48.75H30V59.2125C30 60.9 32.025 61.725 33.1875 60.525L47.4 46.3125C48.15 45.5625 48.15 44.4 47.4 43.65L33.1875 29.4375Z" fill="#00AA55"/>
</svg>
