<svg width="90" height="90" viewBox="0 0 90 90" fill="none" xmlns="http://www.w3.org/2000/svg">
<path fill-rule="evenodd" clip-rule="evenodd" d="M51.7811 31.6778C47.3092 31.178 42.6904 31.178 38.2189 31.6778C34.8514 32.0542 32.1224 34.7047 31.7237 38.1138C31.1886 42.6892 31.1886 47.3111 31.7237 51.8861C32.1224 55.2952 34.8514 57.9457 38.2189 58.3222C42.6904 58.8217 47.3092 58.8217 51.7811 58.3222C55.1486 57.9457 57.8775 55.2952 58.2761 51.8861C58.8113 47.3111 58.8113 42.6892 58.2761 38.1138C57.8775 34.7047 55.1486 32.0542 51.7811 31.6778ZM38.8436 37.268C42.9 36.8147 47.1 36.8147 51.1564 37.268C51.9664 37.3586 52.5997 38.0013 52.6894 38.7674C53.1735 42.9082 53.1735 47.0917 52.6894 51.2324C52.5997 51.9986 51.9664 52.6413 51.1564 52.7321C47.1 53.1851 42.9 53.1851 38.8436 52.7321C38.0336 52.6413 37.4002 51.9986 37.3106 51.2324C36.8263 47.0917 36.8263 42.9082 37.3106 38.7674C37.4002 38.0013 38.0336 37.3586 38.8436 37.268Z" fill="#00AA55"/>
<path fill-rule="evenodd" clip-rule="evenodd" d="M59.0625 11.25C59.0625 9.69671 57.8032 8.4375 56.25 8.4375C54.6968 8.4375 53.4375 9.69671 53.4375 11.25V20.7136C51.5689 20.5823 49.692 20.4949 47.8125 20.4512V15C47.8125 13.4467 46.5532 12.1875 45 12.1875C43.4468 12.1875 42.1875 13.4467 42.1875 15V20.4512C40.308 20.4949 38.4311 20.5823 36.5625 20.7136V11.25C36.5625 9.69671 35.3033 8.4375 33.75 8.4375C32.1967 8.4375 30.9375 9.69671 30.9375 11.25V21.2701C26.0627 22.158 22.1719 26.0097 21.3297 30.9375H11.25C9.69671 30.9375 8.4375 32.1967 8.4375 33.75C8.4375 35.3033 9.69671 36.5625 11.25 36.5625H20.7652C20.6283 38.4356 20.5371 40.311 20.4915 42.1875H15C13.4467 42.1875 12.1875 43.4468 12.1875 45C12.1875 46.5532 13.4467 47.8125 15 47.8125H20.4915C20.5371 49.689 20.6283 51.5644 20.7652 53.4375H11.25C9.69671 53.4375 8.4375 54.6968 8.4375 56.25C8.4375 57.8032 9.69671 59.0625 11.25 59.0625H21.3297C22.1719 63.9904 26.0627 67.842 30.9375 68.73V78.75C30.9375 80.3033 32.1967 81.5625 33.75 81.5625C35.3033 81.5625 36.5625 80.3033 36.5625 78.75V69.2865C38.4311 69.4178 40.308 69.5051 42.1875 69.5486V75C42.1875 76.5533 43.4468 77.8125 45 77.8125C46.5532 77.8125 47.8125 76.5533 47.8125 75V69.5486C49.692 69.5051 51.5689 69.4178 53.4375 69.2865V78.75C53.4375 80.3033 54.6968 81.5625 56.25 81.5625C57.8032 81.5625 59.0625 80.3033 59.0625 78.75V68.73C63.9371 67.842 67.8281 63.9904 68.6704 59.0625H78.75C80.3033 59.0625 81.5625 57.8032 81.5625 56.25C81.5625 54.6968 80.3033 53.4375 78.75 53.4375H69.2348C69.3716 51.5644 69.4631 49.689 69.5085 47.8125H75C76.5533 47.8125 77.8125 46.5532 77.8125 45C77.8125 43.4468 76.5533 42.1875 75 42.1875H69.5085C69.4631 40.311 69.3716 38.4356 69.2348 36.5625H78.75C80.3033 36.5625 81.5625 35.3033 81.5625 33.75C81.5625 32.1967 80.3033 30.9375 78.75 30.9375H68.6704C67.8281 26.0097 63.9371 22.158 59.0625 21.2701V11.25ZM32.3751 26.741C40.6954 25.8111 49.3046 25.8111 57.6251 26.741C60.5239 27.065 62.8384 29.3544 63.1721 32.2081C64.1662 40.707 64.1662 49.293 63.1721 57.792C62.8384 60.6454 60.5239 62.9351 57.6251 63.2591C49.3046 64.1888 40.6954 64.1888 32.3751 63.2591C29.476 62.9351 27.1616 60.6454 26.8278 57.792C25.8338 49.293 25.8338 40.707 26.8278 32.2081C27.1616 29.3544 29.476 27.065 32.3751 26.741Z" fill="#00AA55"/>
</svg>
